<?xml version="1.0" encoding="UTF-8"?>
<!DOCTYPE svg PUBLIC "-//W3C//DTD SVG 1.1//EN" "http://www.w3.org/Graphics/SVG/1.1/DTD/svg11.dtd">
<svg xmlns="http://www.w3.org/2000/svg" xml:space="preserve" width="4.17113in" height="2.96091in" version="1.1" style="shape-rendering:geometricPrecision; text-rendering:geometricPrecision; image-rendering:optimizeQuality; fill-rule:evenodd; clip-rule:evenodd"
viewBox="0 0 3427.83 2433.27">
 <g id="Layer_x0020_1">
  <path style="fill:#000000" d="M-0 1572.6l56.29 18.19c27.1,5.78 27.71,-1.18 49.15,-15.17 79.18,-51.67 216.72,-121.4 305.18,-157.18 654.1,-264.51 1375.13,-181.51 1945.57,200.42 99.17,66.4 135.8,103.39 215.42,166.97 44.96,35.9 123.79,124.12 156.29,152 50.32,43.16 197.71,249.14 234.58,307.71 10.44,16.58 51.85,87.83 60.39,93.55 15.08,10.1 341.72,89.61 365.96,94.18 -43,-144.59 -144.41,-331.55 -217.64,-442.2 -47.54,-71.83 -89.86,-126.68 -140.46,-190.41 -146.14,-184.04 -338.04,-339.3 -535.25,-463.7 -466.42,-294.19 -1086.56,-370.6 -1625.13,-229.15 -295.74,77.68 -648.38,258.01 -870.35,464.78z"/>
  <path style="fill:#000000" d="M1644.73 334.14c48.45,48.36 81.21,16.26 100.96,5.27 272.03,-151.32 641.45,-141.03 906.11,-3.4 148.52,77.24 261.82,177.27 347.21,291.95 98.12,131.78 148.66,251.34 189.34,449.92l221.54 109.68c31.11,-90.32 16.16,-286.73 -2.87,-380.38 -144.08,-709.05 -987.03,-1080.69 -1649.7,-570.37 -18.66,14.37 -40.7,31.25 -56.66,46.05l-55.93 51.27z"/>
 </g>
</svg>
